<?xml version="1.0" standalone="no"?>
<!DOCTYPE svg PUBLIC "-//W3C//DTD SVG 20010904//EN"
 "http://www.w3.org/TR/2001/REC-SVG-20010904/DTD/svg10.dtd">
<svg version="1.0" xmlns="http://www.w3.org/2000/svg"
 width="300.000000pt" height="34.000000pt" viewBox="0 0 300.000000 34.000000"
 preserveAspectRatio="xMidYMid meet">
<metadata>
Created by potrace 1.10, written by Peter Selinger 2001-2011
</metadata>
<g transform="translate(0.000000,34.000000) scale(0.100000,-0.100000)"
fill="#ffffff" stroke="none">
<path d="M485 330 c-3 -5 -16 -11 -28 -11 -18 -1 -18 -2 -4 -6 10 -3 25 1 34
9 13 10 17 10 20 1 3 -9 26 -13 69 -13 54 0 64 -3 64 -17 0 -16 -2 -16 -11 -3
-7 10 -9 11 -7 2 5 -20 23 -15 23 6 0 14 -11 18 -60 20 -33 2 -64 7 -69 13
-13 12 -23 12 -31 -1z"/>
<path d="M1902 327 c-13 -6 -21 -16 -18 -22 4 -13 -132 -155 -149 -155 -5 0
24 35 65 77 42 43 53 57 25 32 -27 -25 -63 -56 -78 -69 -15 -13 -25 -30 -23
-37 3 -6 -1 -10 -7 -7 -7 2 -23 -7 -35 -21 -13 -14 -28 -23 -34 -19 -7 4 -8 3
-4 -4 4 -6 13 -9 21 -5 9 3 15 -1 15 -8 0 -8 49 35 109 95 61 60 109 114 108
119 -1 5 4 12 12 15 9 3 11 0 6 -8 -6 -9 -3 -9 14 -1 41 23 18 38 -27 18z
m-182 -197 c0 -5 -10 -15 -22 -21 -23 -12 -23 -12 -4 10 21 23 26 26 26 11z"/>
<path d="M2298 333 c12 -2 30 -2 40 0 9 3 -1 5 -23 4 -22 0 -30 -2 -17 -4z"/>
<path d="M748 313 c-29 -35 -59 -83 -51 -83 4 0 20 21 35 45 15 25 34 45 43
45 19 0 19 -9 -2 -34 -16 -20 -16 -20 6 0 23 22 22 44 -3 44 -7 0 -20 -8 -28
-17z"/>
<path d="M966 321 c-4 -5 3 -7 14 -4 27 7 26 -14 -2 -46 -22 -26 -22 -26 6 1
18 16 27 32 23 42 -7 17 -32 22 -41 7z"/>
<path d="M2330 320 c-45 -7 -45 -7 -8 -8 53 -3 88 -18 88 -40 0 -26 -51 -86
-75 -90 -11 -1 -35 -5 -54 -9 -23 -4 -36 -2 -42 8 -7 11 -9 11 -9 -3 0 -13 8
-18 29 -18 16 0 38 -3 48 -6 15 -5 16 -4 3 6 -13 10 -12 11 6 7 12 -2 32 2 45
9 13 7 20 13 16 14 -5 0 3 14 17 31 29 34 33 58 14 78 -11 12 -9 13 7 7 20 -6
20 -6 1 9 -11 8 -25 14 -30 13 -6 0 -31 -4 -56 -8z m67 -6 c-3 -3 -12 -4 -19
-1 -8 3 -5 6 6 6 11 1 17 -2 13 -5z"/>
<path d="M2570 313 c-12 -15 -12 -16 0 -5 20 17 38 15 44 -5 4 -14 4 -14 3 2
-3 26 -30 31 -47 8z"/>
<path d="M330 311 c0 -4 11 -6 25 -3 14 2 25 6 25 8 0 2 -11 4 -25 4 -14 0
-25 -4 -25 -9z"/>
<path d="M1196 311 c-10 -4 10 -7 47 -6 36 0 63 3 60 8 -5 9 -82 8 -107 -2z"/>
<path d="M1975 310 c-12 -5 1 -6 35 -3 30 3 57 7 59 9 9 8 -75 2 -94 -6z"/>
<path d="M2214 306 c-3 -8 -11 -13 -18 -10 -17 7 -48 -31 -44 -53 2 -10 10
-18 18 -19 9 0 10 1 3 3 -16 6 -17 35 -1 51 20 20 29 14 23 -15 -3 -16 -2 -21
1 -13 4 8 13 23 22 33 8 9 11 17 6 17 -5 0 -2 5 6 10 10 7 11 10 2 10 -7 0
-15 -6 -18 -14z"/>
<path d="M170 300 c12 -8 9 -15 -18 -43 -17 -18 -32 -36 -32 -40 0 -9 138 -9
143 1 3 4 -27 6 -66 4 l-72 -4 34 35 c31 33 35 57 8 57 -7 0 -6 -4 3 -10z"/>
<path d="M1519 296 c8 -9 10 -28 7 -48 -5 -25 -4 -28 3 -13 15 32 12 62 -5 69
-14 5 -15 4 -5 -8z"/>
<path d="M2263 303 c16 -4 16 -7 -4 -36 l-21 -32 26 29 c26 32 26 47 -2 45
-15 -1 -15 -2 1 -6z"/>
<path d="M2778 299 c19 -7 21 -12 12 -28 -5 -11 -14 -23 -20 -26 -5 -3 -19
-20 -30 -38 -16 -23 -10 -19 19 13 22 25 43 53 46 62 3 9 18 18 33 21 15 2 2
4 -28 4 -42 1 -49 -1 -32 -8z"/>
<path d="M2878 303 c7 -3 16 -2 19 1 4 3 -2 6 -13 5 -11 0 -14 -3 -6 -6z"/>
<path d="M121 272 c-30 -42 -26 -50 5 -12 15 17 24 33 21 36 -2 3 -14 -8 -26
-24z"/>
<path d="M291 266 l-24 -31 28 27 c16 15 27 29 24 31 -2 3 -15 -10 -28 -27z"/>
<path d="M439 266 c-11 -19 -33 -39 -50 -45 -16 -5 -29 -12 -29 -15 0 -14 63
20 78 42 27 39 34 52 27 52 -3 0 -15 -15 -26 -34z"/>
<path d="M470 260 l-32 -40 59 -2 58 -1 -55 -7 -55 -7 58 -1 c74 -2 75 21 2
26 l-48 3 34 35 c18 19 28 34 22 34 -6 0 -26 -18 -43 -40z"/>
<path d="M935 273 l-17 -28 23 22 c12 12 20 25 17 28 -3 3 -13 -7 -23 -22z"/>
<path d="M1142 283 c-11 -10 -29 -23 -39 -29 -10 -7 -16 -14 -13 -17 3 -3 23
10 45 28 22 19 37 34 34 35 -3 0 -15 -8 -27 -17z"/>
<path d="M1221 289 c-14 -6 -21 -13 -15 -18 13 -12 76 -1 71 13 -5 15 -27 17
-56 5z m46 -5 c-3 -3 -12 -4 -19 -1 -8 3 -5 6 6 6 11 1 17 -2 13 -5z"/>
<path d="M1493 265 c0 -22 2 -30 4 -17 2 12 2 30 0 40 -3 9 -5 -1 -4 -23z"/>
<path d="M1925 290 c-3 -6 1 -7 9 -4 18 7 21 14 7 14 -6 0 -13 -4 -16 -10z"/>
<path d="M2035 289 c17 -8 15 -9 -9 -5 -35 5 -80 -14 -121 -49 l-30 -26 43 27
c25 16 61 28 89 31 26 2 49 5 51 8 8 8 -10 25 -26 24 -14 0 -14 -2 3 -10z"/>
<path d="M2677 275 c-20 -14 -37 -30 -37 -35 0 -6 9 -1 21 11 11 11 35 27 52
34 18 8 25 14 17 15 -9 0 -32 -11 -53 -25z"/>
<path d="M2935 288 c11 -6 27 -16 35 -22 9 -6 5 -1 -8 12 -13 12 -28 22 -35
22 -7 0 -3 -6 8 -12z"/>
<path d="M360 279 c0 -5 5 -7 10 -4 6 3 10 8 10 11 0 2 -4 4 -10 4 -5 0 -10
-5 -10 -11z"/>
<path d="M1307 275 c-4 -8 -3 -16 1 -19 4 -3 9 4 9 15 2 23 -3 25 -10 4z"/>
<path d="M2443 266 c0 -18 3 -24 9 -18 7 7 7 16 0 28 -8 14 -9 13 -9 -10z"/>
<path d="M2515 233 c-23 -36 -30 -51 -16 -39 25 23 28 11 5 -24 -9 -14 0 -7
19 15 35 40 42 60 12 35 -22 -18 -18 3 6 34 12 15 19 29 17 32 -3 2 -22 -22
-43 -53z"/>
<path d="M2733 280 c-35 -14 -27 -20 10 -8 17 6 34 13 36 14 8 7 -24 3 -46 -6z"/>
<path d="M2805 239 c-27 -27 -44 -49 -37 -49 6 0 12 4 12 8 0 5 23 27 51 50
29 23 45 42 38 41 -8 0 -36 -23 -64 -50z"/>
<path d="M2576 265 c-11 -8 -17 -17 -14 -20 2 -3 13 4 23 15 21 23 18 25 -9 5z"/>
<path d="M2913 265 c15 -9 32 -26 37 -38 6 -14 9 -16 9 -6 1 22 -20 46 -49 53
-24 6 -24 6 3 -9z"/>
<path d="M330 260 c-8 -5 -12 -12 -9 -15 4 -3 12 1 19 10 14 17 11 19 -10 5z"/>
<path d="M1143 249 c-30 -19 -69 -67 -61 -74 2 -2 12 9 23 25 10 16 35 38 55
49 19 11 31 21 25 21 -5 0 -24 -9 -42 -21z"/>
<path d="M1868 243 c-26 -29 -48 -65 -48 -80 1 -4 8 6 17 22 21 40 44 66 68
76 14 5 15 8 4 8 -8 1 -27 -11 -41 -26z"/>
<path d="M735 246 c-6 -8 -20 -28 -33 -45 -34 -46 -22 -38 21 14 21 25 34 45
30 45 -4 0 -13 -6 -18 -14z"/>
<path d="M1280 240 c6 -11 13 -20 16 -20 2 0 0 9 -6 20 -6 11 -13 20 -16 20
-2 0 0 -9 6 -20z"/>
<path d="M2050 251 c0 -5 7 -15 17 -22 15 -13 15 -12 4 9 -12 23 -21 28 -21
13z"/>
<path d="M2085 215 c0 -24 3 -41 8 -38 4 2 7 19 7 38 0 19 -3 36 -7 38 -5 3
-8 -14 -8 -38z"/>
<path d="M2270 230 c-19 -16 -30 -29 -25 -29 6 0 26 13 45 29 19 17 30 30 25
30 -6 0 -26 -14 -45 -30z"/>
<path d="M1606 208 c-24 -25 -27 -29 -6 -11 19 18 46 36 60 42 18 7 20 10 7
10 -10 1 -37 -18 -61 -41z"/>
<path d="M880 195 c-17 -25 -27 -45 -22 -45 5 0 14 10 20 23 7 12 19 32 28 45
9 12 14 22 11 22 -3 0 -20 -20 -37 -45z"/>
<path d="M936 225 c-11 -8 -17 -17 -14 -20 2 -3 13 4 23 15 21 23 18 25 -9 5z"/>
<path d="M2211 210 c-13 -11 -19 -20 -14 -20 6 0 18 9 28 20 23 25 17 25 -14
0z"/>
<path d="M2410 210 c-14 -11 -20 -20 -14 -20 6 0 19 9 29 20 23 25 17 25 -15
0z"/>
<path d="M2660 220 c-23 -7 -23 -8 -3 -9 12 -1 25 4 28 9 3 6 5 10 3 9 -2 -1
-14 -5 -28 -9z"/>
<path d="M65 210 c-16 -7 -17 -9 -3 -9 9 -1 20 4 23 9 7 11 7 11 -20 0z"/>
<path d="M280 205 c0 -8 2 -15 4 -15 2 0 6 7 10 15 3 8 1 15 -4 15 -6 0 -10
-7 -10 -15z"/>
<path d="M662 190 c-12 -16 -22 -32 -22 -37 0 -4 11 8 25 27 14 19 25 35 25
37 0 8 -8 0 -28 -27z"/>
<path d="M1056 195 c-10 -15 -15 -32 -12 -38 3 -8 5 -7 5 2 1 8 8 23 18 33 9
10 14 20 11 23 -3 3 -13 -6 -22 -20z"/>
<path d="M1481 204 c0 -11 3 -14 6 -6 3 7 2 16 -1 19 -3 4 -6 -2 -5 -13z"/>
<path d="M1599 173 l-34 -38 38 34 c20 19 37 36 37 38 0 8 -8 0 -41 -34z"/>
<path d="M1661 169 c-7 -22 -11 -43 -8 -45 2 -2 9 14 16 37 7 22 11 43 8 45
-2 2 -9 -14 -16 -37z"/>
<path d="M2978 172 l-17 -37 19 24 c11 13 20 29 20 37 0 21 -3 17 -22 -24z"/>
<path d="M87 193 c-3 -5 20 -7 51 -5 98 5 110 9 30 11 -42 0 -79 -2 -81 -6z"/>
<path d="M409 183 c-13 -17 -13 -17 6 -3 11 8 22 16 24 17 2 2 0 3 -6 3 -6 0
-17 -8 -24 -17z"/>
<path d="M1281 184 c0 -11 3 -14 6 -6 3 7 2 16 -1 19 -3 4 -6 -2 -5 -13z"/>
<path d="M1506 185 c-9 -26 -7 -32 5 -12 6 10 9 21 6 23 -2 3 -7 -2 -11 -11z"/>
<path d="M1860 185 c-6 -8 -10 -19 -8 -24 1 -6 8 1 15 14 13 28 11 31 -7 10z"/>
<path d="M2060 187 c0 -18 -57 -75 -92 -93 -15 -8 -28 -19 -28 -25 0 -7 -19
-10 -49 -7 -27 1 -47 0 -44 -4 5 -9 75 -11 97 -2 9 3 13 10 10 15 -3 5 1 9 9
9 8 0 20 7 27 15 7 8 17 15 23 15 5 0 2 -10 -9 -21 -19 -22 -19 -22 1 -11 11
6 34 25 50 44 28 30 28 31 3 9 -36 -32 -44 -23 -13 13 23 26 33 56 20 56 -3 0
-5 -6 -5 -13z"/>
<path d="M43 163 c-9 -16 -22 -35 -27 -43 -10 -13 -9 -13 7 -1 13 10 17 11 17
1 0 -7 9 -1 20 13 11 14 20 29 20 34 0 4 -4 1 -10 -7 -5 -8 -12 -11 -16 -7 -4
3 -1 13 6 22 7 8 10 15 6 15 -3 0 -13 -12 -23 -27z"/>
<path d="M255 180 c-3 -5 -11 -7 -18 -4 -7 2 -18 -6 -26 -18 -14 -23 -13 -23
7 -5 15 14 21 15 24 5 3 -9 9 -5 17 10 11 21 8 32 -4 12z"/>
<path d="M370 168 c-12 -22 -12 -22 6 -6 10 10 15 20 12 24 -4 3 -12 -5 -18
-18z"/>
<path d="M891 168 c-14 -23 -14 -23 8 -4 22 20 25 26 13 26 -4 0 -13 -10 -21
-22z"/>
<path d="M1311 179 c-1 -9 -20 -36 -43 -59 -26 -26 -33 -37 -17 -27 33 22 72
75 65 90 -2 7 -5 5 -5 -4z"/>
<path d="M2168 167 c-3 -19 -2 -25 4 -19 6 6 8 18 6 28 -3 14 -5 12 -10 -9z"/>
<path d="M2951 181 c-1 -8 -9 -24 -18 -35 -16 -20 -16 -20 6 0 13 12 21 28 18
35 -4 11 -6 11 -6 0z"/>
<path d="M1455 116 c-19 -68 -16 -96 10 -96 16 0 24 8 77 75 29 36 29 37 5 16
-32 -29 -36 -17 -5 16 12 13 17 23 12 23 -5 0 -22 -18 -37 -40 -16 -22 -33
-40 -38 -40 -5 0 -9 -5 -9 -12 0 -6 9 -3 20 7 23 21 27 4 4 -19 -21 -21 -44
-20 -44 2 0 10 7 42 16 71 8 29 13 55 11 57 -3 3 -12 -24 -22 -60z"/>
<path d="M1631 164 c0 -11 3 -14 6 -6 3 7 2 16 -1 19 -3 4 -6 -2 -5 -13z"/>
<path d="M2739 163 c-13 -16 -12 -17 4 -4 16 13 21 21 13 21 -2 0 -10 -8 -17
-17z"/>
<path d="M2454 145 c-9 -14 -15 -27 -13 -30 3 -2 12 10 21 26 21 36 15 39 -8
4z"/>
<path d="M2703 158 c-15 -20 -25 -38 -20 -38 3 0 12 11 21 25 17 26 16 35 -1
13z"/>
<path d="M380 140 c-6 -11 -8 -20 -6 -20 3 0 10 9 16 20 6 11 8 20 6 20 -3 0
-10 -9 -16 -20z"/>
<path d="M663 148 c-20 -26 -26 -41 -15 -34 12 7 36 46 29 46 -3 0 -9 -6 -14
-12z"/>
<path d="M1236 125 c-21 -19 -54 -38 -73 -41 -39 -7 -39 -9 2 -18 23 -5 27 -4
15 5 -12 8 -9 9 15 5 17 -3 24 -3 17 0 -8 4 2 19 30 45 24 21 41 38 38 38 -3
0 -23 -15 -44 -34z"/>
<path d="M528 126 c-14 -19 -31 -25 -79 -31 -34 -4 -75 -13 -90 -19 -23 -10
-10 -11 74 -8 60 2 106 9 112 15 6 7 6 9 1 5 -6 -5 -28 -7 -50 -7 -33 1 -36 3
-16 8 14 3 32 11 40 16 21 14 44 45 34 45 -5 0 -17 -11 -26 -24z"/>
<path d="M1072 120 c0 -19 2 -27 5 -17 2 9 2 25 0 35 -3 9 -5 1 -5 -18z"/>
<path d="M1486 135 c-9 -26 -7 -32 5 -12 6 10 9 21 6 23 -2 3 -7 -2 -11 -11z"/>
<path d="M1810 121 c0 -17 4 -32 8 -35 4 -2 6 11 4 30 -5 42 -12 45 -12 5z"/>
<path d="M2250 142 c0 -5 15 -21 33 -38 l32 -29 -28 31 c-15 17 -24 33 -20 37
3 4 1 7 -5 7 -7 0 -12 -4 -12 -8z"/>
<path d="M216 112 l-19 -27 24 22 c12 12 21 24 18 27 -2 2 -13 -8 -23 -22z"/>
<path d="M337 120 c-9 -11 -13 -20 -8 -20 11 0 35 29 29 35 -2 2 -12 -4 -21
-15z"/>
<path d="M610 108 c-11 -18 -20 -39 -20 -45 0 -19 41 -15 75 7 32 21 99 27
110 10 4 -7 -9 -9 -37 -5 l-43 5 39 -10 c41 -11 64 -2 51 20 -4 7 -33 10 -81
8 -70 -3 -94 -12 -56 -21 12 -3 10 -6 -11 -12 -39 -10 -43 -2 -19 40 12 19 19
35 17 35 -3 0 -14 -15 -25 -32z"/>
<path d="M860 117 c-9 -14 -15 -18 -18 -9 -2 8 -11 4 -24 -13 -10 -14 -16 -29
-13 -35 8 -13 52 -13 60 0 4 6 -6 7 -25 4 -32 -7 -37 -1 -18 20 11 11 17 11
35 -1 17 -11 26 -12 43 -3 12 7 39 10 60 8 21 -2 36 1 33 6 -3 4 -34 6 -69 2
-63 -6 -75 -1 -52 22 6 6 10 14 7 16 -3 3 -11 -5 -19 -17z"/>
<path d="M1616 125 c-3 -9 -6 -24 -5 -33 0 -9 5 -4 10 12 9 32 6 48 -5 21z"/>
<path d="M1840 116 c0 -14 4 -27 8 -30 5 -3 6 8 4 25 -5 35 -12 38 -12 5z"/>
<path d="M2180 115 c-13 -14 -20 -25 -16 -25 4 0 15 9 25 21 l17 21 54 -46
c30 -25 56 -42 60 -37 3 6 11 6 20 1 13 -9 13 -10 0 -10 -13 0 -13 -1 0 -10 8
-5 20 -10 25 -10 6 0 3 5 -5 10 -8 5 -11 10 -6 10 5 0 3 7 -4 15 -7 9 -20 13
-30 10 -11 -3 -34 9 -62 35 -26 22 -48 40 -50 40 -3 0 -15 -11 -28 -25z"/>
<path d="M181 103 c-10 -26 -10 -27 4 -9 8 11 15 23 15 28 0 15 -7 8 -19 -19z"/>
<path d="M2136 98 l-18 -33 21 25 c18 22 26 40 18 40 -1 0 -11 -15 -21 -32z"/>
<path d="M2934 115 c-23 -17 -38 -19 -28 -4 3 6 -5 3 -20 -6 -30 -20 -34 -27
-9 -18 11 5 14 3 8 -6 -9 -16 17 -2 55 28 29 23 24 29 -6 6z"/>
<path d="M2462 108 c-17 -17 -15 -26 6 -31 12 -3 10 -6 -11 -12 -27 -7 -54 3
-29 12 6 3 12 9 12 15 0 6 -6 6 -15 -2 -43 -35 2 -53 58 -23 l32 18 -28 3
c-23 3 -26 6 -16 18 14 17 8 19 -9 2z"/>
<path d="M2696 105 c-8 -9 -19 -16 -23 -16 -15 -1 -13 -6 2 -6 8 0 22 9 32 19
20 22 11 24 -11 3z"/>
<path d="M360 100 c0 -5 5 -10 11 -10 5 0 7 5 4 10 -3 6 -8 10 -11 10 -2 0 -4
-4 -4 -10z"/>
<path d="M31 83 c-1 -12 -9 -24 -18 -26 -17 -4 -17 -5 0 -6 19 -1 32 21 24 41
-3 7 -6 3 -6 -9z"/>
<path d="M2558 93 c23 -2 42 -9 42 -14 0 -6 -16 -8 -37 -5 l-38 6 34 -11 c22
-7 37 -7 43 -1 18 18 -3 32 -45 30 l-42 -1 43 -4z"/>
<path d="M921 76 c2 -2 22 -6 44 -9 28 -5 34 -4 20 3 -19 8 -73 14 -64 6z"/>
<path d="M1071 71 c-12 -8 -10 -11 11 -16 14 -4 39 -5 54 -2 22 3 18 5 -16 6
-38 3 -41 4 -20 11 21 7 21 8 5 9 -11 0 -27 -3 -34 -8z"/>
<path d="M1654 69 c-3 -6 -15 -9 -25 -6 -11 3 -19 1 -19 -4 0 -15 36 -10 50 6
7 8 10 15 7 15 -3 0 -9 -5 -13 -11z"/>
<path d="M1908 73 c7 -3 16 -2 19 1 4 3 -2 6 -13 5 -11 0 -14 -3 -6 -6z"/>
<path d="M2140 60 c-6 -11 -8 -20 -6 -20 3 0 10 9 16 20 6 11 8 20 6 20 -3 0
-10 -9 -16 -20z"/>
<path d="M2828 74 c-13 -12 -108 -32 -114 -23 -7 12 -44 12 -44 -1 0 -5 7 -6
17 -3 11 4 14 3 9 -6 -6 -9 4 -11 38 -9 25 2 46 7 46 12 0 4 10 6 23 3 12 -3
33 1 47 9 25 15 25 15 1 8 -16 -4 -21 -3 -17 5 8 12 3 15 -6 5z"/>
<path d="M161 54 c0 -11 3 -14 6 -6 3 7 2 16 -1 19 -3 4 -6 -2 -5 -13z"/>
<path d="M2646 54 c-7 -19 0 -34 17 -34 9 0 8 3 -1 8 -7 5 -10 16 -6 25 3 9 4
17 1 17 -3 0 -8 -7 -11 -16z"/>
<path d="M2101 14 c0 -11 3 -14 6 -6 3 7 2 16 -1 19 -3 4 -6 -2 -5 -13z"/>
</g>
</svg>
